#!OML:ASF I:\salsa\salsa 7_09\Patient 1\Session 1\dancermale.ASF
:FULLY-SPECIFIED
:DEGREES
2334
root 9.76432 17.4604 1.65642 1078.01 -437.011 -352.651
lowerback -2.36192 -0.329492 1.20396
upperback -2.889 -0.552116 -3.20598
thorax -1.68693 -0.361599 -3.98188
lowerneck -1.57606 6.64748 5.28892
upperneck 12.6364 9.0797 -4.80395
head 4.50562 4.4063 -1.91141
rclavicle -3.53091e-014 -2.38542e-014
rhumerus -51.4138 -4.91729 -97.1933
rradius 52.7234
rwrist 10.6096
rhand -32.1229 728.266
rfingers 7.12502
rthumb -5.36739 -21.6462
lclavicle -3.53091e-014 -2.38542e-014
lhumerus -11.7351 -15.7379 103.365
lradius 73.7766
lwrist 41.0821
lhand -35.3093 -308.567
lfingers 7.12502
lthumb -8.44331 441.245
rfemur -11.0649 -2.92864 20.2609
rtibia 15.7056
rfoot -14.5642 -18.8471
rtoes 0.936029
lfemur -197.253 176.251 -199.514
ltibia 24.5085
lfoot -14.4666 8.01923
ltoes -0.390326
2335
root 9.78859 17.4598 1.6242 1077.22 -437.191 -351.866
lowerback -2.16258 -0.313418 1.2714
upperback -2.8736 -0.531935 -3.25172
thorax -1.78264 -0.354225 -4.06616
lowerneck -1.59473 6.77318 5.24852
upperneck 12.4331 9.27255 -5.0161
head 4.46448 4.4913 -1.96043
rclavicle -1.74434e-014 -2.06736e-014
rhumerus -51.5903 -4.45095 -97.6404
rradius 53.0368
rwrist 10.5821
rhand -31.9713 728.264
rfingers 7.12502
rthumb -5.22101 -21.6517
lclavicle -1.74434e-014 -2.06736e-014
lhumerus -11.097 -16.1436 102.981
lradius 73.2459
lwrist 41.1481
lhand -35.1107 -308.419
lfingers 7.12502
lthumb -8.25159 441.399
rfemur -11.6544 -2.95211 20.2389
rtibia 16.5898
rfoot -14.6596 -18.7253
rtoes 0.89417
lfemur -197.316 176.058 -199.559
ltibia 24.5012
lfoot -14.2609 7.98778
ltoes -0.805616
2336
root 9.81479 17.456 1.58989 1076.91 -437.296 -351.595
lowerback -1.96731 -0.322955 1.40713
upperback -2.81798 -0.542717 -3.24619
thorax -1.83723 -0.361242 -4.13616
lowerneck -1.55933 6.93929 5.22473
upperneck 12.1934 9.52267 -5.26307
head 4.40926 4.60499 -2.0218
rclavicle 8.54774e-015 -8.74653e-015
rhumerus -51.6899 -3.84436 -98.0743
rradius 53.3135
rwrist 10.5018
rhand -31.728 728.379
rfingers 7.12502
rthumb -4.98607 -21.5425
lclavicle 8.54774e-015 -8.74653e-015
lhumerus -10.4277 -16.4661 102.695
lradius 72.6876
lwrist 41.3431
lhand -34.7355 -308.448
lfingers 7.12502
lthumb -7.88946 441.385
rfemur -12.226 -3.00294 20.3516
rtibia 17.4508
rfoot -14.7208 -18.6901
rtoes 0.43994
lfemur -197.591 175.932 -199.477
ltibia 24.9218
lfoot -14.3029 7.95966
ltoes -0.96395
2337
root 9.84044 17.4487 1.5548 1076.72 -437.327 -351.45
lowerback -1.82005 -0.339335 1.54774
upperback -2.74522 -0.56153 -3.23781
thorax -1.848 -0.371388 -4.2063
lowerneck -1.50568 7.04834 5.17112
upperneck 11.9617 9.68916 -5.44569
head 4.34483 4.68007 -2.0645
rclavicle -1.45486e-014 2.06736e-014
rhumerus -51.8313 -3.25156 -98.4479
rradius 53.6733
rwrist 10.4146
rhand -31.5808 728.334
rfingers 7.12502
rthumb -4.84395 -21.5906
lclavicle -1.45486e-014 2.06736e-014
lhumerus -9.84969 -16.711 102.539
lradius 72.1696
lwrist 41.6544
lhand -34.4097 -308.587
lfingers 7.12502
lthumb -7.57505 441.257
rfemur -12.7329 -3.12218 20.4777
rtibia 18.2465
rfoot -14.8904 -18.6769
rtoes 0.210706
lfemur -197.975 175.765 -199.381
ltibia 25.5436
lfoot -14.3934 7.8552
ltoes -0.902777
2338
root 9.8657 17.4384 1.52108 1076.27 -437.249 -351.031
lowerback -1.67727 -0.365794 1.68142
upperback -2.69635 -0.597113 -3.31348
thorax -1.88364 -0.392352 -4.36008
lowerneck -1.49008 7.10704 5.03104
upperneck 11.8753 9.76352 -5.35477
head 4.3088 4.71686 -2.01284
rclavicle 2.22639e-014 -1.74931e-014
rhumerus -52.0472 -2.75959 -98.8431
rradius 54.0523
rwrist 10.3141
rhand -31.6642 728.1
rfingers 7.12502
rthumb -4.92452 -21.8224
lclavicle 2.22639e-014 -1.74931e-014
lhumerus -9.43013 -16.8734 102.476
lradius 71.683
lwrist 42.1734
lhand -34.1254 -308.689
lfingers 7.12502
lthumb -7.30062 441.165
rfemur -13.2032 -3.42701 20.4996
rtibia 18.9949
rfoot -15.065 -18.6541
rtoes 0.089812
lfemur -198.42 175.616 -199.405
ltibia 26.2488
lfoot -14.4001 7.72239
ltoes -1.06286
2339
root 9.89221 17.4248 1.49059 1075.8 -437.097 -350.596
lowerback -1.53675 -0.413257 1.818
upperback -2.66322 -0.661799 -3.40836
thorax -1.93759 -0.429058 -4.5355
lowerneck -1.51951 7.15632 5.0097
upperneck 11.957 9.82717 -5.30838
head 4.33885 4.74748 -1.9895
rclavicle 1.19022e-014 -1.03368e-014
rhumerus -52.1886 -2.36089 -99.2165
rradius 54.2596
rwrist 10.2082
rhand -31.8276 728.067
rfingers 7.12502
rthumb -5.08231 -21.8525
lclavicle 1.19022e-014 -1.03368e-014
lhumerus -9.14771 -16.9192 102.521
lradius 71.2893
lwrist 42.692
lhand -33.7399 -308.77
lfingers 7.12502
lthumb -6.92846 441.096
rfemur -13.6496 -3.85008 20.4793
rtibia 19.6501
rfoot -15.0741 -18.6087
rtoes 0.262544
lfemur -198.893 175.544 -199.485
ltibia 26.9803
lfoot -14.3103 7.53809
ltoes -1.56282
2340
root 9.92379 17.4094 1.46397 1076.08 -436.868 -350.843
lowerback -1.50606 -0.4785 2.10533
upperback -2.62692 -0.748405 -3.44324
thorax -1.93062 -0.477406 -4.73496
lowerneck -1.5081 7.17658 5.08684
upperneck 12.0195 9.86506 -5.42422
head 4.36754 4.76243 -2.03385
rclavicle -1.10698e-014 4.21423e-014
rhumerus -52.189 -2.11006 -99.4305
rradius 54.3605
rwrist 10.2052
rhand -31.7588 728.272
rfingers 7.12502
rthumb -5.01586 -21.6482
lclavicle -1.10698e-014 4.21423e-014
lhumerus -8.94785 -16.896 102.732
lradius 70.9736
lwrist 42.966
lhand -33.2778 -308.884
lfingers 7.12502
lthumb -6.48239 440.997
rfemur -14.2315 -4.45088 20.605
rtibia 20.3322
rfoot -15.0358 -18.4464
rtoes 0.501183
lfemur -199.551 175.58 -199.421
ltibia 27.8168
lfoot -14.2518 7.19766
ltoes -1.42482
2341
root 9.96079 17.3928 1.43913 1076.56 -436.511 -351.238
lowerback -1.52606 -0.574721 2.46683
upperback -2.57624 -0.877013 -3.49501
thorax -1.88745 -0.547433 -4.995
lowerneck -1.58615 7.15809 5.13855
upperneck 12.0803 9.84851 -5.52737
head 4.40568 4.74899 -2.0701
rclavicle -5.19325e-015 7.95139e-015
rhumerus -52.0514 -1.94284 -99.5745
rradius 54.3853
rwrist 10.2879
rhand -31.7401 728.324
rfingers 7.12502
rthumb -4.99783 -21.5973
lclavicle -5.19325e-015 7.95139e-015
lhumerus -8.84692 -17.0144 102.966
lradius 70.7815
lwrist 43.2267
lhand -33.2251 -308.985
lfingers 7.12502
lthumb -6.4315 440.898
rfemur -14.8653 -5.1247 20.745
rtibia 20.9895
rfoot -15.1025 -18.3259
rtoes 0.282509
lfemur -200.401 175.682 -199.337
ltibia 28.7788
lfoot -14.2441 6.91637
ltoes -0.522693
2342
root 9.98849 17.3808 1.4016 1076.71 -436.11 -351.43
lowerback -1.4211 -0.692084 2.5551
upperback -2.53292 -1.03236 -3.52924
thorax -1.92081 -0.627075 -5.07937
lowerneck -1.72096 7.13514 5.16255
upperneck 12.3202 9.81378 -5.48141
head 4.49846 4.72872 -2.05324
rclavicle -1.11568e-014 -2.70347e-014
rhumerus -51.9052 -1.82216 -99.6969
rradius 54.2506
rwrist 10.3002
rhand -31.8642 728.225
rfingers 7.12502
rthumb -5.11764 -21.6935
lclavicle -1.11568e-014 -2.70347e-014
lhumerus -9.00941 -17.1068 103.264
lradius 70.7018
lwrist 43.6316
lhand -33.2183 -309.122
lfingers 7.12502
lthumb -6.42499 440.761
rfemur -15.0923 -5.44306 20.8581
rtibia 21.2949
rfoot -15.201 -18.4841
rtoes 0.465023
lfemur -201.082 175.57 -199.212
ltibia 29.815
lfoot -14.4204 6.62075
ltoes 0.146081
2343
root 10.0183 17.3699 1.36979 1077.21 -435.686 -351.915
lowerback -1.33031 -0.814514 2.72035
upperback -2.56588 -1.19554 -3.52249
thorax -2.02743 -0.714845 -5.16403
lowerneck -1.70501 7.14765 5.08409
upperneck 12.5084 9.81492 -5.26705
head 4.53927 4.73341 -1.97392
rclavicle 1.30204e-014 -6.36111e-015
rhumerus -51.7576 -1.73943 -99.7301
rradius 54.0013
rwrist 10.2779
rhand -31.7611 728.079
rfingers 7.12502
rthumb -5.01803 -21.8412
lclavicle 1.30204e-014 -6.36111e-015
lhumerus -9.36829 -17.1414 103.706
lradius 70.6938
lwrist 44.264
lhand -33.1591 -309.613
lfingers 7.12502
lthumb -6.36777 440.271
rfemur -15.3989 -5.91419 21.0257
rtibia 21.5923
rfoot -15.166 -18.5021
rtoes 0.946141
lfemur -201.907 175.378 -199.035
ltibia 31.0701
lfoot -14.8988 6.4934
ltoes -0.334668
2344
root 10.0507 17.3579 1.34512 1077.83 -435.386 -352.496
lowerback -1.32253 -0.897309 2.94737
upperback -2.57167 -1.30443 -3.48058
thorax -2.05472 -0.773651 -5.2486
lowerneck -1.67128 7.16941 4.95711
upperneck 12.5093 9.83519 -5.12248
head 4.52171 4.74562 -1.9105
rclavicle 1.85864e-014 2.70347e-014
rhumerus -51.527 -1.69428 -99.6576
rradius 53.7455
rwrist 10.3958
rhand -31.5635 727.916
rfingers 7.12502
rthumb -4.82731 -22.0088
lclavicle 1.85864e-014 2.70347e-014
lhumerus -9.78209 -17.137 104.201
lradius 70.9031
lwrist 44.9346
lhand -32.7818 -310.775
lfingers 7.12502
lthumb -6.00353 439.12
rfemur -15.7806 -6.41493 21.2297
rtibia 21.9088
rfoot -15.028 -18.4227
rtoes 1.03366
lfemur -202.757 174.95 -198.864
ltibia 32.479
lfoot -15.5195 6.35492
ltoes -1.20082
2345
root 10.0832 17.3468 1.3211 1078.25 -435.133 -352.946
lowerback -1.33376 -0.95746 3.1067
upperback -2.50398 -1.38169 -3.451
thorax -1.99082 -0.811494 -5.30854
lowerneck -1.68184 7.15732 4.95011
upperneck 12.5115 9.81844 -5.11704
head 4.52264 4.73728 -1.9083
rclavicle 5.10814e-014 -2.62396e-014
rhumerus -51.2376 -1.71722 -99.5609
rradius 53.5077
rwrist 10.58
rhand -31.638 727.723
rfingers 7.12502
rthumb -4.89915 -22.2007
lclavicle 5.10814e-014 -2.62396e-014
lhumerus -10.2662 -17.1609 104.676
lradius 71.3573
lwrist 45.7095
lhand -32.4037 -312.109
lfingers 7.12502
lthumb -5.63851 437.796
rfemur -15.9536 -6.66973 21.3896
rtibia 22.0041
rfoot -14.8471 -18.4986
rtoes 1.06936
lfemur -203.435 174.44 -198.726
ltibia 33.9424
lfoot -16.2621 6.28717
ltoes -2.39605
